<svg width="18" height="18" viewBox="0 0 18 18" fill="none" xmlns="http://www.w3.org/2000/svg">
<path d="M17.75 9.25C17.75 9.80229 17.3023 10.25 16.75 10.25H11.25C10.6977 10.25 10.25 10.6977 10.25 11.25V16.75C10.25 17.3023 9.80229 17.75 9.25 17.75H8.75C8.19772 17.75 7.75 17.3023 7.75 16.75V11.25C7.75 10.6977 7.30228 10.25 6.75 10.25H1.25C0.697715 10.25 0.25 9.80229 0.25 9.25V8.75C0.25 8.19772 0.697715 7.75 1.25 7.75H6.75C7.30228 7.75 7.75 7.30228 7.75 6.75V1.25C7.75 0.697715 8.19772 0.25 8.75 0.25H9.25C9.80229 0.25 10.25 0.697715 10.25 1.25V6.75C10.25 7.30228 10.6977 7.75 11.25 7.75H16.75C17.3023 7.75 17.75 8.19772 17.75 8.75V9.25Z" fill="#FAF9FD"/>
</svg>
