<svg width="25" height="24" viewBox="0 0 25 24" fill="none" xmlns="http://www.w3.org/2000/svg">
<path fill-rule="evenodd" clip-rule="evenodd" d="M5.5 12.5H2.5L12.5 3.5L22.5 12.5H19.5V20.5H13.5V14.5H11.5V20.5H5.5V12.5ZM17.5 10.69L12.5 6.19L7.5 10.69V18.5H9.5V12.5H15.5V18.5H17.5V10.69Z" fill="#A99DC6"/>
<path fill-rule="evenodd" clip-rule="evenodd" d="M5.5 12.5H2.5L12.5 3.5L22.5 12.5H19.5V20.5H13.5V14.5H11.5V20.5H5.5V12.5ZM17.5 10.69L12.5 6.19L7.5 10.69V18.5H9.5V12.5H15.5V18.5H17.5V10.69Z" fill="#A99DC6" />
<defs>
<linearGradient id="paint0_linear" x1="12.5" y1="3.5" x2="12.5" y2="20.5" gradientUnits="userSpaceOnUse">
<stop stop-color="#A99DC6" stop-opacity="0"/>
<stop offset="1" stop-color="#A99DC6"/>
</linearGradient>
</defs>
</svg>
